<svg width="32" height="32" viewBox="0 0 32 32" fill="none" xmlns="http://www.w3.org/2000/svg">
<path d="M28.4195 0H3.29866C1.51556 0 0.0700684 1.45228 0.0700684 3.24376V28.4826C0.0700684 30.274 1.51556 31.7263 3.29866 31.7263H28.4195C30.2026 31.7263 31.6481 30.274 31.6481 28.4826V3.24376C31.6481 1.45228 30.2026 0 28.4195 0Z" fill="#38B2AC"/>
<path d="M9.86621 24.8293L4.87549 8.27649H8.4707L11.5692 18.4172L14.5258 8.27649H17.3878L20.3444 18.4172L23.4429 8.27649H27.0144L22.0237 24.8293H18.9489L15.945 14.9499L12.9411 24.8293H9.86621Z" fill="black"/>
<path d="M9.86621 24.8293L4.87549 8.27649H8.4707L11.5692 18.4172L14.5258 8.27649H17.3878L20.3444 18.4172L23.4429 8.27649H27.0144L22.0237 24.8293H18.9489L15.945 14.9499L12.9411 24.8293H9.86621Z" fill="white"/>
</svg>
